<svg width="315" height="235" viewBox="0 0 315 235" fill="none" xmlns="http://www.w3.org/2000/svg">
<path d="M157.5 234.713C224.962 234.713 279.651 231.52 279.651 227.581C279.651 223.642 224.962 220.45 157.5 220.45C90.038 220.45 35.3493 223.642 35.3493 227.581C35.3493 231.52 90.038 234.713 157.5 234.713Z" fill="#F5F5F5"/>
<path d="M241.92 196.503C241.92 196.503 244.661 192.49 247.155 191.369C249.65 190.247 250.053 185.982 251.408 185.749C252.762 185.516 254.255 189.447 256.624 190.594C258.993 191.741 262.578 196.478 262.578 196.478L241.92 196.503Z" fill="#433C82"/>
<path opacity="0.8" d="M241.92 196.503C241.92 196.503 244.661 192.49 247.155 191.369C249.65 190.247 250.053 185.982 251.408 185.749C252.762 185.516 254.255 189.447 256.624 190.594C258.993 191.741 262.578 196.478 262.578 196.478L241.92 196.503Z" fill="white"/>
<path d="M261.841 225.395H241.907L239.387 196.478H264.361L261.841 225.395Z" fill="#433C82"/>
<path d="M265.564 194.979H238.178V198.022H265.564V194.979Z" fill="#433C82"/>
<path opacity="0.2" d="M265.564 194.979H238.178V198.022H265.564V194.979Z" fill="white"/>
<path d="M250.696 197.121C252.51 199.968 260.278 211.718 265.091 212.575L265.684 211.151C265.684 211.151 261.374 211.667 251.824 196.403C251.733 196.254 251.589 196.146 251.422 196.101C251.254 196.055 251.076 196.075 250.923 196.157C250.842 196.203 250.771 196.265 250.715 196.339C250.66 196.414 250.62 196.499 250.598 196.589C250.577 196.68 250.575 196.774 250.592 196.865C250.608 196.957 250.644 197.044 250.696 197.121Z" fill="#263238"/>
<path d="M222.333 187.998C222.538 187.934 222.754 187.911 222.967 187.931C223.181 187.951 223.389 188.013 223.578 188.115C223.767 188.216 223.934 188.355 224.068 188.522C224.203 188.689 224.303 188.882 224.362 189.088L227.764 200.989L232.174 199.219C232.174 199.219 234.839 209.141 229.805 210.71C224.91 212.241 221.13 203.08 221.13 203.08L225.628 201.82L221.332 190.065C221.259 189.863 221.228 189.65 221.239 189.436C221.251 189.222 221.305 189.013 221.398 188.821C221.491 188.628 221.622 188.456 221.783 188.315C221.943 188.174 222.131 188.066 222.333 187.998Z" fill="#433C82"/>
<path opacity="0.4" d="M229.824 210.71C224.91 212.241 221.13 203.081 221.13 203.081L225.628 201.821C225.628 201.821 226.403 203.144 227.273 202.816C228.142 202.488 227.789 200.97 227.789 200.97L232.199 199.2C232.199 199.2 234.858 209.16 229.824 210.71Z" fill="white"/>
<path d="M267.542 227.839C265.066 226.611 262.534 225.452 261.721 225.395C259.982 225.282 258.98 224.507 257.739 223.026C256.498 221.546 255.994 219.832 253.751 217.451C251.509 215.069 253.997 214.112 249.26 213.501C244.522 212.89 246.355 213.274 243.445 211.176C240.534 209.078 241.126 209.084 237.718 207.585C234.31 206.086 236.3 205.519 232.313 205.185C229.559 204.952 225.206 206.401 222.944 208.013C221.943 208.725 221.432 209.903 220.424 210.533C219.309 211.245 217.577 209.903 217.76 212.304C217.881 212.915 217.908 213.542 217.841 214.162C217.52 215.51 211.97 215.504 210.559 215.926C210.222 215.986 209.921 216.171 209.714 216.443C209.393 217.016 209.878 218.03 209.255 218.238C209.059 218.308 208.839 218.238 208.625 218.27C207.875 218.415 208.07 219.763 207.365 220.072C206.659 220.38 205.846 219.75 205.065 220.072C204.467 220.298 204.265 221.105 203.742 221.426C202.829 221.98 201.884 222.39 200.983 222.982C199.42 224.003 198.066 225.256 196.39 226.132L191.904 227.354L190.562 227.827L267.542 227.839Z" fill="#433C82"/>
<path opacity="0.8" d="M267.542 227.839C265.066 226.611 262.534 225.452 261.721 225.395C259.982 225.282 258.98 224.507 257.739 223.026C256.498 221.546 255.994 219.832 253.751 217.451C251.509 215.069 253.997 214.112 249.26 213.501C244.522 212.89 246.355 213.274 243.445 211.176C240.534 209.078 241.126 209.084 237.718 207.585C234.31 206.086 236.3 205.519 232.313 205.185C229.559 204.952 225.206 206.401 222.944 208.013C221.943 208.725 221.432 209.903 220.424 210.533C219.309 211.245 217.577 209.903 217.76 212.304C217.881 212.915 217.908 213.542 217.841 214.162C217.52 215.51 211.97 215.504 210.559 215.926C210.222 215.986 209.921 216.171 209.714 216.443C209.393 217.016 209.878 218.03 209.255 218.238C209.059 218.308 208.839 218.238 208.625 218.27C207.875 218.415 208.07 219.763 207.365 220.072C206.659 220.38 205.846 219.75 205.065 220.072C204.467 220.298 204.265 221.105 203.742 221.426C202.829 221.98 201.884 222.39 200.983 222.982C199.42 224.003 198.066 225.256 196.39 226.132L191.904 227.354L190.562 227.827L267.542 227.839Z" fill="white"/>
<path d="M214.673 216.373C214.676 216.42 214.676 216.466 214.673 216.512C214.654 218.646 214.034 220.731 212.883 222.529C212.789 222.673 212.694 222.818 212.587 222.963C211.926 223.902 211.128 224.737 210.218 225.439C210.017 225.603 209.806 225.757 209.588 225.899C209.539 225.937 209.486 225.971 209.431 226L209.223 226.132C209.115 226.205 209.004 226.273 208.889 226.334C208.713 226.435 208.53 226.535 208.347 226.624C206.154 227.728 203.663 228.096 201.244 227.674C198.825 227.252 196.606 226.062 194.916 224.28C194.145 223.484 193.497 222.577 192.994 221.59C192.164 219.974 191.732 218.184 191.734 216.367V216.329C191.734 216.008 191.734 215.699 191.778 215.372C191.901 213.894 192.315 212.456 192.994 211.138C193.162 210.807 193.347 210.485 193.549 210.174C194.209 209.151 195.025 208.237 195.968 207.465C196.267 207.22 196.581 206.993 196.907 206.785C197.02 206.703 197.138 206.628 197.259 206.558C198.161 206.003 199.137 205.579 200.157 205.298L200.422 205.229C201.333 205.003 202.268 204.888 203.207 204.889C203.501 204.889 203.79 204.901 204.076 204.926H204.296C205.57 205.047 206.815 205.384 207.976 205.922L208.121 205.991C209.845 206.807 211.338 208.042 212.464 209.582C213.589 211.123 214.312 212.92 214.565 214.811C214.639 215.329 214.675 215.851 214.673 216.373Z" fill="#433C82"/>
<path opacity="0.6" d="M214.673 216.373C214.674 218.505 214.081 220.594 212.959 222.407C211.837 224.219 210.231 225.682 208.322 226.63C208.06 226.418 207.846 226.154 207.692 225.855C209.809 219.681 207.692 216.373 207.692 216.373V216.31L207.843 215.321V215.139C208.171 213.305 208.996 209.872 210.785 207.793C212.005 208.865 212.982 210.185 213.653 211.665C214.323 213.144 214.67 214.749 214.673 216.373Z" fill="white"/>
<path opacity="0.6" d="M194.412 214.389C194.412 214.389 192.402 216.399 192.994 221.596C191.796 219.257 191.438 216.578 191.98 214.007C192.521 211.436 193.929 209.129 195.968 207.472C194.856 209.603 194.32 211.987 194.412 214.389Z" fill="white"/>
<path opacity="0.2" d="M210.817 207.793C208.297 210.716 207.667 216.374 207.667 216.374C200.737 218.068 194.393 214.389 194.393 214.389C194.301 211.983 194.837 209.595 195.949 207.459C198.06 205.742 200.712 204.832 203.433 204.89C206.153 204.949 208.764 205.974 210.798 207.78L210.817 207.793Z" fill="white"/>
<path opacity="0.2" d="M208.316 226.63C206.125 227.726 203.641 228.089 201.228 227.666C198.815 227.243 196.603 226.056 194.916 224.28C197.064 225.54 201.455 227.348 207.686 225.849C207.839 226.151 208.053 226.417 208.316 226.63Z" fill="white"/>
<g opacity="0.2">
<path opacity="0.2" d="M208.127 206.01C207.827 206.431 207.551 206.868 207.302 207.32C206.835 208.189 206.433 209.09 206.098 210.017C205.745 210.943 205.468 211.907 205.216 212.845C204.964 213.784 204.75 214.773 204.586 215.75C204.652 214.756 204.791 213.768 205.002 212.795C205.215 211.817 205.489 210.854 205.821 209.91C206.164 208.973 206.586 208.067 207.081 207.201C207.355 206.764 207.654 206.344 207.976 205.941L208.127 206.01Z" fill="black"/>
<path opacity="0.2" d="M204.296 204.952C204.139 205.235 203.994 205.525 203.855 205.815C203.393 206.792 203.011 207.805 202.715 208.845C202.381 209.878 202.129 210.937 201.89 211.995C201.65 213.053 201.449 214.124 201.26 215.195C201.324 214.105 201.454 213.019 201.65 211.945C201.839 210.868 202.091 209.803 202.406 208.757C202.721 207.702 203.132 206.68 203.635 205.701C203.774 205.443 203.918 205.185 204.07 204.939L204.296 204.952Z" fill="black"/>
<path opacity="0.2" d="M200.422 205.241L200.227 205.752C199.88 206.687 199.595 207.645 199.376 208.618C199.13 209.588 198.941 210.571 198.746 211.56C198.551 212.549 198.412 213.538 198.267 214.534C198.289 213.526 198.371 212.52 198.513 211.522C198.651 210.516 198.84 209.517 199.08 208.53C199.31 207.543 199.62 206.576 200.006 205.638C200.057 205.525 200.107 205.405 200.164 205.292L200.422 205.241Z" fill="black"/>
<path opacity="0.2" d="M197.259 206.564C197.045 207.27 196.844 207.976 196.699 208.694C196.554 209.412 196.384 210.307 196.258 211.119C196.132 211.932 196.043 212.751 195.968 213.576C195.925 212.749 195.942 211.919 196.018 211.094C196.098 210.267 196.222 209.445 196.39 208.631C196.53 208.009 196.703 207.395 196.907 206.791C197.02 206.71 197.138 206.634 197.259 206.564Z" fill="black"/>
<path opacity="0.2" d="M210.911 220.198C210.945 221.384 210.789 222.569 210.452 223.707C210.283 224.274 210.073 224.828 209.822 225.364C209.74 225.546 209.645 225.729 209.551 225.905C209.501 225.943 209.448 225.977 209.393 226.006C209.738 225.246 210.01 224.455 210.206 223.644C210.501 222.522 210.628 221.363 210.584 220.204C210.566 219.045 210.388 217.894 210.055 216.783C209.728 215.661 209.262 214.583 208.669 213.576C209.372 214.533 209.917 215.596 210.281 216.726C210.665 217.845 210.877 219.015 210.911 220.198Z" fill="black"/>
<path opacity="0.2" d="M213.173 219.87L213.142 220.821L213.009 221.766C212.981 222.023 212.937 222.278 212.877 222.529C212.783 222.674 212.688 222.818 212.581 222.963C212.675 222.559 212.738 222.149 212.77 221.735L212.864 220.802V219.87C212.886 219.558 212.886 219.244 212.864 218.931C212.833 218.623 212.833 218.301 212.776 218.005C212.633 216.766 212.321 215.551 211.85 214.395C211.395 213.227 210.771 212.132 209.998 211.145C210.87 212.064 211.571 213.13 212.071 214.295C212.586 215.461 212.93 216.696 213.091 217.961C213.142 218.276 213.135 218.591 213.161 218.912C213.187 219.231 213.191 219.551 213.173 219.87Z" fill="black"/>
<path opacity="0.2" d="M214.673 216.373C214.676 216.42 214.676 216.466 214.673 216.512L214.635 216.298C214.367 214.992 213.944 213.723 213.375 212.518C212.817 211.298 212.083 210.166 211.195 209.16C212.175 210.097 212.985 211.197 213.589 212.411C213.989 213.198 214.322 214.018 214.584 214.861C214.649 215.363 214.679 215.868 214.673 216.373Z" fill="black"/>
<path opacity="0.2" d="M193.851 212.575C193.345 213.15 192.911 213.784 192.56 214.465C192.232 215.07 191.956 215.703 191.734 216.355C191.734 216.033 191.734 215.725 191.778 215.397C191.947 215.032 192.138 214.679 192.352 214.339C192.744 213.667 193.252 213.07 193.851 212.575Z" fill="black"/>
<path opacity="0.2" d="M194.393 209.525C193.914 210.067 193.448 210.603 192.994 211.144C193.162 210.813 193.347 210.492 193.549 210.181C193.817 209.946 194.099 209.728 194.393 209.525Z" fill="black"/>
<path opacity="0.2" d="M194.393 216.821C195.439 217.224 196.497 217.577 197.543 217.892C198.612 218.209 199.697 218.467 200.794 218.667C202.977 219.137 205.238 219.109 207.409 218.585C206.352 218.981 205.236 219.194 204.107 219.215C202.978 219.237 201.849 219.148 200.737 218.95C199.63 218.741 198.54 218.455 197.474 218.093C196.416 217.748 195.386 217.322 194.393 216.821Z" fill="black"/>
<path opacity="0.2" d="M194.393 219.561C195.446 219.979 196.523 220.333 197.618 220.62C198.711 220.908 199.823 221.118 200.945 221.25C202.063 221.403 203.194 221.456 204.322 221.407L205.166 221.369L206.01 221.269C206.577 221.231 207.119 221.067 207.686 220.985C206.6 221.343 205.474 221.567 204.334 221.653C203.192 221.734 202.044 221.704 200.907 221.565C199.773 221.415 198.652 221.174 197.555 220.846C196.462 220.521 195.403 220.09 194.393 219.561Z" fill="black"/>
<path opacity="0.2" d="M194.67 221.93C195.661 222.392 196.687 222.775 197.738 223.077C198.785 223.376 199.856 223.587 200.939 223.707C201.48 223.795 202.022 223.807 202.564 223.845C203.106 223.883 203.654 223.845 204.202 223.814C205.293 223.752 206.376 223.596 207.44 223.348C206.4 223.714 205.319 223.953 204.221 224.059C203.116 224.17 202.003 224.157 200.901 224.022C199.802 223.886 198.719 223.641 197.669 223.291C196.62 222.954 195.614 222.497 194.67 221.93Z" fill="black"/>
<path opacity="0.2" d="M195.143 223.713C196.078 224.145 197.044 224.505 198.034 224.79C199.019 225.085 200.026 225.295 201.046 225.42C202.063 225.571 203.094 225.612 204.12 225.54L204.889 225.483L205.645 225.357C206.161 225.307 206.646 225.131 207.157 225.03C206.19 225.42 205.175 225.674 204.139 225.786C203.093 225.911 202.035 225.911 200.989 225.786C199.954 225.654 198.935 225.419 197.946 225.086C196.961 224.739 196.021 224.278 195.143 223.713Z" fill="black"/>
</g>
<path d="M71.6877 198.349C71.6877 198.349 73.9305 194.979 77.9184 194.733C81.9063 194.487 85.2705 199.571 85.2705 199.571H84.0105C84.0105 199.571 80.7912 196.1 78.4854 196.1C76.1796 196.1 73.9368 198.967 73.9368 198.967L71.6877 198.349Z" fill="#263238"/>
<path d="M37.8504 224.948C39.2301 222.648 54.684 224.141 58.1742 222.768L60.0642 226.012C60.0642 226.012 57.3993 227.487 52.9767 226.964C48.5541 226.441 41.8698 226.302 40.1247 227.839L37.8504 224.948Z" fill="#263238"/>
<path opacity="0.3" d="M37.8504 224.948C39.2301 222.648 54.684 224.141 58.1742 222.768L60.0642 226.012C60.0642 226.012 57.3993 227.487 52.9767 226.964C48.5541 226.441 41.8698 226.302 40.1247 227.839L37.8504 224.948Z" fill="black"/>
<path d="M102.942 217.936C102.816 218.484 102.677 219.02 102.52 219.542C101.26 223.833 99.3195 227.304 97.9083 227.839H57.8466C57.2957 227.84 56.7522 227.714 56.2575 227.471C55.7628 227.229 55.3302 226.876 54.9927 226.441L54.9612 226.397C54.8133 226.202 54.6885 225.991 54.5895 225.767C51.8238 219.99 49.0329 208.435 52.9578 203.169C53.3684 202.62 53.842 202.121 54.369 201.682L54.4824 201.594C55.3137 200.915 56.2336 200.354 57.2166 199.924H57.2481C60.0075 198.664 63.3969 198.103 66.6981 197.858C67.662 197.782 68.5881 197.738 69.5583 197.719C72.0153 197.65 74.3085 197.719 76.1355 197.763C82.5741 197.927 87.6393 199.842 91.0917 199.508C92.3596 199.376 93.641 199.478 94.8717 199.811C95.2262 199.91 95.5752 200.028 95.9175 200.164C97.4887 200.828 98.95 201.726 100.252 202.829C104.196 205.96 104.252 212.379 102.942 217.936Z" fill="#263238"/>
<path opacity="0.1" d="M102.942 217.936C102.816 218.484 102.677 219.02 102.52 219.542C101.26 223.833 99.3195 227.304 97.9083 227.839H57.8466C57.2957 227.84 56.7522 227.714 56.2575 227.471C55.7628 227.229 55.3302 226.876 54.9927 226.441L54.9612 226.397C54.8133 226.202 54.6885 225.991 54.5895 225.767C51.8238 219.99 49.0329 208.435 52.9578 203.169C53.3684 202.62 53.842 202.121 54.369 201.682L54.4824 201.594C55.3137 200.915 56.2336 200.354 57.2166 199.924H57.2481C60.0075 198.664 63.3969 198.103 66.6981 197.858C67.662 197.782 68.5881 197.738 69.5583 197.719C72.0153 197.65 74.3085 197.719 76.1355 197.763C82.5741 197.927 87.6393 199.842 91.0917 199.508C92.3596 199.376 93.641 199.478 94.8717 199.811C95.2262 199.91 95.5752 200.028 95.9175 200.164C97.4887 200.828 98.95 201.726 100.252 202.829C104.196 205.96 104.252 212.379 102.942 217.936Z" fill="white"/>
<path opacity="0.2" d="M96.8058 217.539C93.9393 217.539 88.2063 218.906 79.7328 217.041C75.7822 216.103 71.6701 216.072 67.7061 216.953C67.6116 215.693 67.5108 214.288 67.3974 212.764C66.6477 202.526 60.8076 198.229 57.2481 199.93H57.2166C56.2508 200.393 55.3347 200.952 54.4824 201.6L54.369 201.688C53.842 202.127 53.3684 202.626 52.9578 203.175C49.0329 208.442 51.8238 219.996 54.5895 225.773C54.6885 225.997 54.8133 226.208 54.9612 226.403L54.9927 226.447C55.3333 226.833 55.7521 227.143 56.2213 227.354C56.6906 227.566 57.1995 227.676 57.7143 227.676H64.89C67.8195 227.676 68.166 224.992 67.8384 219.227C68.3361 218.944 68.9472 218.597 69.6276 218.131C71.4105 216.972 78.3468 217.545 81.3393 218.667C84.3318 219.788 92.1816 220.286 95.9805 219.668C98.1419 219.348 100.336 219.307 102.507 219.549C102.665 219.026 102.803 218.49 102.929 217.942C101.632 217.797 98.91 217.539 96.8058 217.539Z" fill="black"/>
<path opacity="0.2" d="M70.7616 203.08C72.5067 209.437 73.7037 211.68 74.1636 212.304C74.6235 212.927 87.3117 214.433 89.6931 214.427C92.4417 214.403 95.1826 214.133 97.8831 213.62C99.5022 213.211 100.025 205.059 95.9427 200.17C95.6004 200.034 95.2514 199.917 94.8969 199.817C97.1208 204.807 97.1712 210.918 96.9066 211.787C96.5286 212.997 92.7927 212.82 91.0476 212.782C89.3025 212.745 78.4476 212.071 77.3388 211.63C76.2682 211.185 75.3569 210.427 74.7243 209.456C73.8486 208.335 73.7289 204.473 72.1476 201.14C71.4764 199.874 70.6016 198.727 69.5583 197.744C68.6196 197.744 67.6683 197.807 66.6981 197.883C67.6944 198.426 68.5689 199.167 69.2678 200.061C69.9666 200.955 70.475 201.983 70.7616 203.08Z" fill="black"/>
<path d="M58.1742 208.933L54.684 209.79C54.684 209.79 52.2081 216.896 53.6886 219.87C55.1691 222.844 43.6086 226.983 37.8504 224.91L40.1058 227.802C40.1058 227.802 53.8146 226.939 56.4291 221.722C59.0436 216.506 55.3077 215.699 55.062 214.232C54.8163 212.764 58.1742 208.933 58.1742 208.933Z" fill="#263238"/>
<path opacity="0.1" d="M58.1742 208.933L54.684 209.79C54.684 209.79 52.2081 216.896 53.6886 219.87C55.1691 222.844 43.6086 226.983 37.8504 224.91L40.1058 227.802C40.1058 227.802 53.8146 226.939 56.4291 221.722C59.0436 216.506 55.3077 215.699 55.062 214.232C54.8163 212.764 58.1742 208.933 58.1742 208.933Z" fill="white"/>
<path d="M89.0001 62.37C89.0001 62.37 75.5181 54.81 72.7272 52.8696C69.9363 50.9292 55.0053 36.2691 54.1737 35.8596C54.1737 35.8596 54.7281 34.1838 53.4744 33.2073C52.2207 32.2308 47.3319 29.0241 46.6389 29.0241C45.9459 29.0241 44.1189 35.8596 44.4024 37.5354C44.6859 39.2112 51.5214 39.627 51.5214 39.627C51.5214 39.627 65.7531 56.196 67.9833 58.527C70.2135 60.858 85.4217 70.7553 85.4217 70.7553L89.0001 62.37Z" fill="#E4897B"/>
<path d="M94.5315 63.7623C94.5315 63.7623 97.4862 69.7284 90.3105 79.2036L74.4912 67.5738L80.7912 56.1393L94.5315 63.7623Z" fill="#433C82"/>
<path opacity="0.6" d="M90.3105 79.2036L82.8387 73.71L81.8622 72.9918L77.6475 69.93L74.4975 67.6053L76.8222 63.4032L78.12 60.984L80.7975 56.1393L83.3805 57.5757L85.6107 58.8357L94.5189 63.7875C94.8114 64.4791 94.9922 65.2127 95.0544 65.961C95.3505 68.4747 94.9221 73.1115 90.3105 79.2036Z" fill="white"/>
<path opacity="0.2" d="M90.3105 79.2037L82.8387 73.7101C85.4028 68.4054 92.0367 66.5344 95.067 65.9359C95.3505 68.4748 94.9221 73.1116 90.3105 79.2037Z" fill="black"/>
<g opacity="0.2">
<path opacity="0.2" d="M85.6233 58.8105L83.3931 60.1083V57.5757L85.6233 58.8105Z" fill="white"/>
<path opacity="0.2" d="M80.7723 61.7652L77.9751 65.6901L76.8159 63.3717L78.1326 60.984L80.7723 61.7652Z" fill="white"/>
<path opacity="0.2" d="M82.8387 67.6683L81.8622 72.9918L77.6475 69.8985L82.8387 67.6683Z" fill="white"/>
<path opacity="0.2" d="M84.7728 64.6317L86.3289 68.6196L89.5608 64.2222L84.7728 64.6317Z" fill="white"/>
</g>
<path d="M123.934 60.9399C123.934 60.9399 137.416 53.3799 140.206 51.4395C142.997 49.4991 157.928 34.8391 158.766 34.4296C158.766 34.4296 158.206 32.7538 159.459 31.7773C160.713 30.8008 165.602 27.5941 166.295 27.5941C166.988 27.5941 168.815 34.4296 168.531 36.1054C168.248 37.7812 161.412 38.197 161.412 38.197C161.412 38.197 147.181 54.7723 144.95 57.097C142.72 59.4217 127.512 69.3001 127.512 69.3001L123.934 60.9399Z" fill="#E4897B"/>
<path d="M107.824 140.774C107.824 140.774 107.535 145.53 107.1 151.893C106.81 155.849 106.47 160.417 106.06 164.833C105.531 170.768 104.933 176.425 104.334 179.953C103.786 183.185 96.5097 223.322 96.5097 223.322H91.6335C93.1707 185.894 95.5521 171.379 95.6403 169.199C95.6403 168.487 95.697 167.498 95.7285 166.32C95.823 162.049 95.9049 155.301 95.9553 150.394C95.9931 146.853 96.012 144.276 96.012 144.276L107.824 140.774Z" fill="#E4897B"/>
<path d="M126.63 171.058C126.46 174.327 124.513 223.146 124.513 223.146H119.152C116.411 184.262 117.451 170.762 116.959 168.065C116.122 163.479 115.334 157.45 114.792 152.945C114.358 149.348 114.087 146.759 114.087 146.759L125.017 142.034C125.017 142.034 125.679 147.704 126.176 154.495C126.422 157.897 126.636 161.595 126.699 165.035C126.75 167.189 126.737 169.243 126.63 171.058Z" fill="#E4897B"/>
<path opacity="0.2" d="M95.9301 150.381L107.1 151.893C106.81 155.849 106.47 160.417 106.06 164.833L95.7033 166.32C95.7978 162.036 95.8797 155.289 95.9301 150.381Z" fill="black"/>
<path opacity="0.2" d="M126.706 165.06L116.966 168.059C116.128 163.472 115.34 157.443 114.799 152.939L126.183 154.489C126.428 157.897 126.63 161.595 126.706 165.06Z" fill="black"/>
<path d="M97.65 221.81H91.2051C91.0996 221.812 90.9975 221.849 90.9153 221.915C90.8331 221.981 90.7754 222.073 90.7515 222.176L89.712 226.888C89.669 227.09 89.7078 227.301 89.82 227.475C89.9322 227.648 90.1085 227.771 90.3105 227.814C90.3692 227.821 90.4283 227.821 90.4869 227.814C92.5659 227.783 94.0842 227.651 96.6924 227.651C98.3052 227.651 103.163 227.821 105.38 227.821C107.598 227.821 107.9 225.628 106.987 225.42C102.904 224.532 99.8298 223.304 98.5257 222.132C98.2857 221.917 97.9723 221.802 97.65 221.81Z" fill="#433C82"/>
<path d="M124.916 221.647H118.484C118.379 221.646 118.276 221.681 118.194 221.746C118.111 221.811 118.054 221.903 118.031 222.006L116.985 226.724C116.965 226.827 116.965 226.932 116.986 227.034C117.007 227.136 117.048 227.233 117.106 227.319C117.165 227.405 117.24 227.479 117.327 227.536C117.415 227.593 117.512 227.632 117.615 227.651H117.785C119.87 227.619 121.382 227.493 123.997 227.493C125.603 227.493 130.46 227.657 132.684 227.657C134.908 227.657 135.204 225.464 134.285 225.263C130.202 224.375 127.134 223.14 125.83 221.968C125.706 221.857 125.562 221.771 125.405 221.716C125.248 221.661 125.082 221.637 124.916 221.647Z" fill="#433C82"/>
<path d="M108.265 162.08C108.316 161.652 108.366 161.204 108.417 160.7C109.047 154.249 109.733 146.507 110.307 139.047C112.48 144.894 113.419 153.115 114.553 162.08H127.783C126.687 138.877 123.814 120.002 122.289 111.951H94.2291C94.1913 114.836 93.87 142.821 93.1455 162.08H108.265Z" fill="#263238"/>
<path opacity="0.2" d="M108.265 162.08C108.316 161.652 108.366 161.204 108.417 160.7C109.047 154.249 109.733 146.507 110.307 139.047C112.48 144.894 113.419 153.115 114.553 162.08H127.783C126.687 138.877 123.814 120.002 122.289 111.951H94.2291C94.1913 114.836 93.87 142.821 93.1455 162.08H108.265Z" fill="white"/>
<path d="M112.14 54.4887C112.079 54.7427 112.003 54.993 111.913 55.2384C111.411 56.6393 110.498 57.8559 109.292 58.7286C108.989 58.951 108.669 59.149 108.335 59.3208C107.057 60.0042 105.591 60.251 104.16 60.0235C102.729 59.796 101.412 59.1067 100.409 58.0608C97.7571 55.3833 97.8264 52.29 97.524 47.0547C97.444 45.9297 97.6274 44.8016 98.0595 43.7598C98.4208 42.8902 98.95 42.1002 99.6168 41.4352C100.284 40.7701 101.075 40.2429 101.945 39.8837C102.816 39.5244 103.749 39.3403 104.69 39.3416C105.632 39.343 106.564 39.5299 107.434 39.8916C112.549 41.9832 113.255 49.77 112.14 54.4887Z" fill="#E4897B"/>
<path opacity="0.2" d="M109.273 58.7286C108.97 58.951 108.65 59.149 108.316 59.3208C107.439 59.7886 106.468 60.054 105.475 60.0976C104.482 60.1412 103.491 59.9619 102.577 59.5728C102.814 58.9435 103.129 58.3466 103.515 57.7962C105.484 57.5493 107.483 57.8729 109.273 58.7286Z" fill="black"/>
<path d="M98.7336 65.5201C101.317 67.8637 107.635 67.0006 107.635 67.0006C107.635 67.0006 111.579 65.9169 110.748 64.6884C108.429 64.3041 107.302 63.2206 106.835 61.8283C106.584 60.9681 106.505 60.0668 106.602 59.1759C106.639 58.6792 106.705 58.1849 106.798 57.6955L98.9856 51.912C100.006 55.7298 101.26 62.7544 98.7336 65.5201Z" fill="#E4897B"/>
<path d="M109.273 49.7259L110.401 50.148L109.841 47.8422C109.841 47.8422 111.491 45.3222 109.841 43.1361C109.841 43.1361 114.402 41.7501 111.825 39.3561C110.867 38.4615 109.677 39.3561 106.527 37.989C104.819 37.2393 99.477 37.1826 99.2124 39.3561C99.2124 39.3561 95.3631 39.3561 94.9473 45.9081C94.8257 47.8278 95.1279 49.7506 95.8323 51.5405C96.5367 53.3304 97.6261 54.9434 99.0234 56.2653C99.0234 56.2653 103.673 57.3615 105.953 55.4967C108.234 53.6319 109.273 49.7259 109.273 49.7259Z" fill="#263238"/>
<path d="M106.3 50.0976C106.398 50.5902 106.605 51.0545 106.906 51.4567C107.207 51.859 107.594 52.1889 108.039 52.4223C109.103 52.8759 109.809 51.3765 109.651 49.8015C109.507 48.4029 108.782 46.4373 107.642 46.7019C106.501 46.9665 105.928 48.6864 106.3 50.0976Z" fill="#E4897B"/>
<path opacity="0.2" d="M110.332 139.016C109.733 146.475 109.072 154.237 108.442 160.688C107.484 151.37 106.312 144.73 106.312 144.73C106.312 144.73 105.216 143.829 102.199 139.016C99.1809 134.203 102.199 125.206 102.199 125.206C102.06 133.56 110.332 139.016 110.332 139.016Z" fill="black"/>
<path d="M128.759 160.99L128.18 163.176H114.093V161.154L128.759 160.99Z" fill="#433C82"/>
<path d="M108.946 161.293L108.524 163.315H92.5722L91.6083 161.293H108.946Z" fill="#433C82"/>
<path d="M110.911 64.0018C110.911 64.0018 108.618 60.3793 102.841 60.121C97.0641 59.8627 96.6231 63.838 96.6231 63.838L110.911 64.0018Z" fill="#433C82"/>
<path opacity="0.5" d="M110.911 64.0018C110.911 64.0018 108.618 60.3793 102.841 60.121C97.0641 59.8627 96.6231 63.838 96.6231 63.838L110.911 64.0018Z" fill="white"/>
<path d="M90.1656 61.74C91.9082 81.3537 91.6971 101.092 89.5356 120.664L123.385 118.597C123.007 84.0546 118.377 62.2944 118.377 62.2944C118.377 62.2944 109.651 64.1277 102.551 63.8631C98.3511 63.6681 94.191 62.955 90.1656 61.74Z" fill="#433C82"/>
<path d="M118.402 62.3197C118.402 62.3197 122.926 72.8911 123.411 83.5885C123.896 94.2859 105.04 108.99 105.04 108.99C105.04 108.99 90.5058 98.9857 79.2918 99.8929C68.0778 100.8 64.5876 104.788 64.5876 104.788C64.5876 104.788 73.3068 86.1337 88.4898 79.6321C88.4898 79.6321 85.3398 68.8906 90.1656 61.7905C90.1656 61.7401 100.661 65.1799 118.402 62.3197Z" fill="#433C82"/>
<path opacity="0.6" d="M123.411 83.5884C123.426 83.8906 123.426 84.1934 123.411 84.4956C123.385 84.9629 123.328 85.428 123.241 85.8879C123.035 86.9699 122.712 88.0263 122.277 89.0379C120.93 91.9989 119.174 94.7559 117.06 97.2279C115.989 98.5383 114.855 99.7983 113.734 100.97C111.018 103.834 108.113 106.513 105.04 108.99C101.223 106.463 97.1647 104.321 92.925 102.595C91.6335 102.079 90.2916 101.594 88.9245 101.184C85.8197 100.179 82.5569 99.7522 79.2981 99.9243C76.1875 100.131 73.1159 100.733 70.1568 101.713C69.6465 101.89 69.174 102.079 68.7393 102.262L68.3487 102.432C67.4018 102.842 66.4985 103.347 65.6523 103.937C65.5578 104 65.4696 104.07 65.3877 104.133C65.3058 104.196 65.0916 104.359 64.9782 104.46L64.827 104.593C64.7884 104.623 64.7526 104.657 64.7199 104.693L64.6443 104.769L64.6002 104.813C64.6002 104.782 64.6758 104.649 64.7892 104.422L64.9656 104.076C65.142 103.723 65.3877 103.251 65.709 102.677L65.8476 102.425L66.0933 101.991C66.1752 101.839 66.2634 101.682 66.3579 101.524C66.7233 100.894 67.1517 100.164 67.6179 99.3888C70.2076 95.1983 73.2729 91.3212 76.7529 87.8346C77.9936 86.6009 79.3063 85.4418 80.6841 84.3633C83.0654 82.468 85.6829 80.8903 88.4709 79.6698C87.7482 76.9032 87.4194 74.0485 87.4944 71.19C87.5128 70.2896 87.5864 69.3912 87.7149 68.4999C88.0038 66.0888 88.8422 63.7761 90.1656 61.74C91.7137 62.19 93.293 62.5248 94.8906 62.7417C96.9783 63.0601 99.0811 63.2704 101.191 63.3717C105.434 63.5616 109.685 63.4121 113.904 62.9244C115.34 62.769 116.833 62.559 118.383 62.2944L118.528 62.6472C119.531 65.1622 120.395 67.7301 121.117 70.3395C121.395 71.3412 121.672 72.4122 121.936 73.5336C122.201 74.655 122.403 75.6567 122.604 76.7718C123.021 79.0241 123.29 81.3011 123.411 83.5884Z" fill="white"/>
<g opacity="0.2">
<path opacity="0.2" d="M119.07 92.1754L117.079 97.2658C116.008 98.5762 114.874 99.8362 113.753 101.008L109.702 93.448L119.07 92.1754Z" fill="white"/>
<path opacity="0.2" d="M84.7728 87.3118L76.7718 87.7717C78.0125 86.538 79.3252 85.3788 80.703 84.3004L84.7728 87.3118Z" fill="white"/>
<path opacity="0.2" d="M94.0023 67.1581L93.1455 75.4741L87.4755 71.1838C87.4939 70.2834 87.5675 69.385 87.696 68.4937L94.0023 67.1581Z" fill="white"/>
<path opacity="0.2" d="M96.6231 89.0695L94.0023 81.0811L101.972 79.6069L96.6231 89.0695Z" fill="white"/>
<path opacity="0.2" d="M110.332 81.459V87.4377L116.052 85.3839L110.332 81.459Z" fill="white"/>
<path opacity="0.2" d="M95.6151 98.7777L92.925 102.558C91.6335 102.041 90.2916 101.556 88.9245 101.147L86.8959 96.5223L95.6151 98.7777Z" fill="white"/>
<path opacity="0.2" d="M75.1779 93.0448L79.2918 94.7899L75.1779 97.5934V93.0448Z" fill="white"/>
<path opacity="0.2" d="M70.1505 101.657C66.0555 103.087 64.5876 104.763 64.5876 104.763C65.5018 102.898 66.5176 101.085 67.6305 99.3322L70.1505 101.657Z" fill="white"/>
<path opacity="0.2" d="M103.767 93.9204L100.227 97.5933L105.582 98.532L103.767 93.9204Z" fill="white"/>
<path opacity="0.2" d="M103.767 70.8625L107.932 76.4695L110.912 70.1191L103.767 70.8625Z" fill="white"/>
<path opacity="0.2" d="M122.623 76.797L117.3 73.2942L121.136 70.3647C121.678 72.3051 122.22 74.4912 122.623 76.797Z" fill="white"/>
<path opacity="0.2" d="M123.404 84.4957C123.29 86.0717 122.906 87.6164 122.27 89.0632L120.04 83.5759L123.404 84.4957Z" fill="white"/>
<path opacity="0.2" d="M118.547 62.6724L115.177 66.15L113.917 62.9496C115.353 62.7942 116.846 62.5842 118.396 62.3196L118.547 62.6724Z" fill="white"/>
<path opacity="0.2" d="M101.209 63.3781L98.7336 68.6197L94.8906 62.767C96.9849 63.0797 99.094 63.2837 101.209 63.3781Z" fill="white"/>
</g>
<path opacity="0.2" d="M123.411 83.5884C123.426 83.8906 123.426 84.1934 123.411 84.4956C123.385 84.9629 123.328 85.4281 123.241 85.8879C118.831 78.8949 119.876 72.5697 119.876 72.5697L121.962 73.5588C122.201 74.5983 122.428 75.6819 122.629 76.797C123.037 79.0415 123.298 81.3101 123.411 83.5884Z" fill="black"/>
<path d="M105.544 34.4799C113.022 31.9032 114.899 41.8635 107.472 48.5982C100.044 55.3329 91.5138 56.1582 90.5436 52.7436C89.5734 49.329 94.1283 38.43 105.544 34.4799Z" fill="#433C82"/>
<path d="M98.0532 33.9759C101.89 33.9759 107.339 37.8819 107.339 37.8819C107.339 37.8819 108.121 42.0399 104.297 45.6939C100.472 49.3479 97.02 49.9275 94.8906 48.51C92.7612 47.0925 92.169 41.58 92.169 41.58C92.3631 40.928 92.712 40.3325 93.1859 39.8444C93.6598 39.3562 94.2446 38.9899 94.8906 38.7765C94.8906 38.7765 95.5206 34.02 98.0532 33.9759Z" fill="#433C82"/>
<path opacity="0.2" d="M104.297 45.6939C100.472 49.3479 97.0326 49.9275 94.8906 48.5163C94.5173 48.2543 94.2002 47.9201 93.9582 47.5335C92.5722 45.4482 92.169 41.5989 92.169 41.5989C95.823 46.0089 100.057 41.454 100.643 38.3796C100.816 37.6494 100.818 36.8889 100.649 36.1577C100.479 35.4265 100.143 34.7445 99.666 34.1649C102.186 34.7067 104.945 36.3195 106.369 37.233C106.999 37.6173 107.339 37.863 107.339 37.863C107.339 37.863 108.121 42.0399 104.297 45.6939Z" fill="black"/>
<path opacity="0.6" d="M104.296 45.6939C100.472 49.3479 97.0326 49.9275 94.8906 48.5163C94.5173 48.2543 94.2002 47.9201 93.9582 47.5335C97.7886 48.6738 102.35 46.7775 104.8 43.3692C106.1 41.6049 106.662 39.4045 106.369 37.233C106.999 37.6173 107.339 37.863 107.339 37.863C107.339 37.863 108.121 42.0399 104.296 45.6939Z" fill="white"/>
<path d="M118.402 62.3196C118.402 62.3196 115.447 68.292 122.623 77.7609L138.442 66.15L132.142 54.7155L118.402 62.3196Z" fill="#433C82"/>
<path opacity="0.6" d="M138.442 66.1501L134.316 69.1803L128.211 73.6723L122.623 77.7799C122.258 77.3011 121.924 76.8286 121.609 76.3687C120.969 75.4314 120.388 74.4551 119.87 73.4455C118.592 71.1001 117.886 68.486 117.81 65.8162C117.767 64.619 117.982 63.4266 118.44 62.3196L121.955 60.3667L128.01 57.0088L130.668 55.5283L132.168 54.6967L138.442 66.1501Z" fill="white"/>
<g opacity="0.2">
<path opacity="0.2" d="M134.316 69.1614L128.211 73.6533L125.521 67.6683L134.316 69.1614Z" fill="white"/>
<path opacity="0.2" d="M133.749 59.535L128.117 61.7652L127.972 57.0087L130.63 55.5282L133.749 59.535Z" fill="white"/>
<path opacity="0.2" d="M123.934 64.2222L117.81 65.8161C117.767 64.6189 117.982 63.4265 118.44 62.3196L121.955 60.3666L123.934 64.2222Z" fill="white"/>
<path opacity="0.2" d="M122.623 71.8641L121.59 76.3497C120.95 75.4124 120.369 74.4361 119.851 73.4265L122.623 71.8641Z" fill="white"/>
</g>
<path d="M161.557 169.854L151.83 169.086L155.043 128.066L164.802 128.829L161.557 169.854ZM153.827 167.334L159.818 167.801L162.735 130.549L156.75 130.082L153.827 167.334Z" fill="#263238"/>
<path d="M154.835 222.73L156.095 222.831C156.446 222.826 156.794 222.894 157.117 223.031C157.44 223.168 157.73 223.371 157.97 223.627C158.21 223.883 158.394 224.187 158.51 224.518C158.626 224.849 158.671 225.2 158.644 225.55C158.616 225.9 158.515 226.24 158.349 226.548C158.182 226.857 157.953 227.128 157.675 227.342C157.398 227.557 157.079 227.712 156.739 227.797C156.398 227.881 156.044 227.894 155.698 227.833L154.438 227.732C154.087 227.738 153.739 227.671 153.416 227.534C153.092 227.398 152.801 227.195 152.56 226.939C152.32 226.684 152.135 226.381 152.019 226.049C151.902 225.718 151.856 225.367 151.884 225.017C151.911 224.667 152.011 224.326 152.178 224.017C152.344 223.708 152.573 223.437 152.851 223.222C153.128 223.007 153.447 222.852 153.788 222.767C154.128 222.683 154.483 222.67 154.829 222.73H154.835Z" fill="#263238"/>
<path opacity="0.1" d="M152.095 224.986C152.054 225.49 152.163 225.996 152.41 226.438C152.657 226.88 153.029 227.239 153.48 227.47C153.93 227.7 154.439 227.792 154.942 227.732C155.445 227.673 155.919 227.467 156.304 227.138C156.689 226.809 156.968 226.374 157.106 225.887C157.243 225.399 157.233 224.882 157.076 224.401C156.92 223.919 156.624 223.495 156.226 223.182C155.828 222.869 155.346 222.681 154.841 222.642C154.506 222.611 154.168 222.647 153.848 222.749C153.527 222.851 153.23 223.016 152.974 223.234C152.717 223.453 152.508 223.72 152.357 224.021C152.206 224.322 152.117 224.65 152.095 224.986Z" fill="white"/>
<path d="M147.955 222.195L149.215 222.289C149.566 222.283 149.915 222.351 150.238 222.487C150.561 222.624 150.853 222.827 151.093 223.082C151.334 223.338 151.518 223.641 151.635 223.972C151.751 224.303 151.797 224.655 151.77 225.005C151.743 225.355 151.643 225.695 151.476 226.004C151.31 226.313 151.08 226.584 150.803 226.799C150.526 227.015 150.207 227.17 149.866 227.254C149.525 227.339 149.171 227.352 148.825 227.291L147.565 227.197C147.214 227.203 146.866 227.135 146.542 226.999C146.219 226.862 145.928 226.659 145.687 226.404C145.447 226.148 145.262 225.845 145.146 225.514C145.029 225.183 144.983 224.831 145.01 224.481C145.038 224.131 145.138 223.791 145.304 223.482C145.471 223.173 145.7 222.902 145.977 222.687C146.255 222.471 146.574 222.316 146.914 222.232C147.255 222.147 147.61 222.134 147.955 222.195Z" fill="#263238"/>
<path opacity="0.2" d="M145.215 224.45C145.175 224.955 145.286 225.459 145.534 225.901C145.781 226.342 146.154 226.7 146.605 226.93C147.056 227.159 147.565 227.25 148.067 227.19C148.57 227.13 149.043 226.923 149.428 226.594C149.812 226.265 150.091 225.829 150.227 225.342C150.364 224.855 150.354 224.338 150.197 223.857C150.04 223.376 149.744 222.952 149.346 222.64C148.948 222.327 148.466 222.139 147.962 222.1C147.286 222.05 146.618 222.268 146.104 222.709C145.589 223.149 145.27 223.775 145.215 224.45Z" fill="white"/>
<path d="M146.809 222.951L156.557 223.715C157.49 223.788 158.306 223.09 158.379 222.157L163.021 162.911C163.094 161.978 162.397 161.162 161.463 161.089L151.716 160.325C150.783 160.252 149.967 160.949 149.894 161.883L145.252 221.129C145.179 222.062 145.876 222.878 146.809 222.951Z" fill="#263238"/>
<path opacity="0.2" d="M151.675 223.324L156.562 223.706C157.495 223.779 158.31 223.082 158.384 222.149L163.026 162.903C163.099 161.97 162.401 161.154 161.468 161.081L156.582 160.698C155.649 160.625 154.833 161.322 154.76 162.255L150.118 221.502C150.045 222.435 150.742 223.25 151.675 223.324Z" fill="white"/>
<path d="M155.498 129.44L163.72 130.098C164.415 130.153 165.025 129.634 165.08 128.938L165.142 128.164C165.198 127.468 164.679 126.858 163.983 126.803L155.762 126.145C155.066 126.089 154.457 126.608 154.401 127.304L154.339 128.079C154.283 128.775 154.802 129.384 155.498 129.44Z" fill="#263238"/>
<path opacity="0.2" d="M155.498 129.44L163.72 130.098C164.415 130.153 165.025 129.634 165.08 128.938L165.142 128.164C165.198 127.468 164.679 126.858 163.983 126.803L155.762 126.145C155.066 126.089 154.457 126.608 154.401 127.304L154.339 128.079C154.283 128.775 154.802 129.384 155.498 129.44Z" fill="white"/>
<path opacity="0.2" d="M155.687 130.258L156.371 130.312C157.065 130.366 157.672 129.848 157.726 129.154L157.786 128.381C157.84 127.688 157.322 127.081 156.628 127.027L155.944 126.973C155.25 126.919 154.643 127.438 154.589 128.131L154.529 128.904C154.475 129.598 154.993 130.204 155.687 130.258Z" fill="black"/>
<path d="M181.15 167.353L176.954 220.903C176.88 221.849 176.434 222.726 175.713 223.343C174.993 223.959 174.057 224.265 173.111 224.192L153.581 222.661C152.919 222.605 152.306 222.289 151.875 221.783C151.445 221.277 151.231 220.621 151.282 219.958L155.61 164.285C155.665 163.623 155.979 163.009 156.484 162.577C156.989 162.145 157.644 161.93 158.306 161.979L177.836 163.51C178.307 163.544 178.766 163.67 179.187 163.881C179.609 164.093 179.984 164.386 180.292 164.743C180.6 165.1 180.835 165.514 180.982 165.962C181.129 166.41 181.186 166.883 181.15 167.353Z" fill="#433C82"/>
<path opacity="0.2" d="M181.15 167.353L176.954 220.903C176.88 221.849 176.434 222.726 175.713 223.343C174.993 223.959 174.057 224.265 173.111 224.192L153.581 222.661C152.919 222.605 152.306 222.289 151.875 221.783C151.445 221.277 151.231 220.621 151.282 219.958L155.61 164.285C155.665 163.623 155.979 163.009 156.484 162.577C156.989 162.145 157.644 161.93 158.306 161.979L177.836 163.51C178.307 163.544 178.766 163.67 179.187 163.881C179.609 164.093 179.984 164.386 180.292 164.743C180.6 165.1 180.835 165.514 180.982 165.962C181.129 166.41 181.186 166.883 181.15 167.353Z" fill="white"/>
<path opacity="0.2" d="M167.719 162.716V162.792L167.019 162.735C166.356 162.687 165.7 162.902 165.194 163.336C164.689 163.769 164.376 164.384 164.323 165.047L159.963 220.702C159.924 221.26 160.071 221.816 160.383 222.282C160.694 222.747 161.152 223.096 161.683 223.272L153.562 222.642C152.9 222.587 152.286 222.273 151.855 221.768C151.423 221.263 151.208 220.608 151.257 219.946L155.61 164.291C155.663 163.628 155.976 163.013 156.482 162.58C156.987 162.146 157.643 161.931 158.306 161.979L167.719 162.716Z" fill="black"/>
<path opacity="0.2" d="M167.553 164.667L167.264 164.644C166.886 164.615 166.556 164.897 166.526 165.275L162.251 219.836C162.222 220.214 162.504 220.545 162.882 220.575L163.171 220.597C163.549 220.627 163.88 220.344 163.909 219.966L168.184 165.405C168.214 165.027 167.931 164.697 167.553 164.667Z" fill="black"/>
<path opacity="0.2" d="M171.465 165.242L171.176 165.219C170.798 165.19 170.468 165.472 170.438 165.85L166.163 220.411C166.134 220.789 166.416 221.12 166.794 221.149L167.083 221.172C167.461 221.202 167.792 220.919 167.821 220.541L172.096 165.98C172.126 165.602 171.843 165.271 171.465 165.242Z" fill="black"/>
<path opacity="0.2" d="M175.379 165.477L175.09 165.454C174.712 165.425 174.381 165.707 174.352 166.085L170.077 220.646C170.047 221.024 170.33 221.355 170.708 221.384L170.997 221.407C171.375 221.437 171.705 221.154 171.735 220.776L176.01 166.215C176.039 165.837 175.757 165.507 175.379 165.477Z" fill="black"/>
<path opacity="0.2" d="M179.28 165.706L178.991 165.683C178.613 165.653 178.283 165.936 178.253 166.314L173.978 220.875C173.949 221.253 174.231 221.584 174.609 221.613L174.898 221.636C175.276 221.665 175.607 221.383 175.636 221.005L179.911 166.444C179.941 166.066 179.658 165.735 179.28 165.706Z" fill="black"/>
</svg>
