<svg width="25" height="25" viewBox="0 0 25 25" fill="none" xmlns="http://www.w3.org/2000/svg">
<path fill-rule="evenodd" clip-rule="evenodd" d="M25 12.5C25 15.8152 23.683 18.9946 21.3388 21.3388C18.9946 23.683 15.8152 25 12.5 25C9.18479 25 6.00537 23.683 3.66117 21.3388C1.31696 18.9946 0 15.8152 0 12.5C0 9.18479 1.31696 6.00537 3.66117 3.66117C6.00537 1.31696 9.18479 0 12.5 0C15.8152 0 18.9946 1.31696 21.3388 3.66117C23.683 6.00537 25 9.18479 25 12.5ZM15.625 7.8125C15.625 8.6413 15.2958 9.43616 14.7097 10.0222C14.1237 10.6083 13.3288 10.9375 12.5 10.9375C11.6712 10.9375 10.8763 10.6083 10.2903 10.0222C9.70424 9.43616 9.375 8.6413 9.375 7.8125C9.375 6.9837 9.70424 6.18884 10.2903 5.60279C10.8763 5.01674 11.6712 4.6875 12.5 4.6875C13.3288 4.6875 14.1237 5.01674 14.7097 5.60279C15.2958 6.18884 15.625 6.9837 15.625 7.8125ZM12.5 14.0625C11.0041 14.0622 9.53949 14.4914 8.28034 15.2991C7.02118 16.1067 6.02038 17.2589 5.39687 18.6188C6.27606 19.6416 7.36605 20.4621 8.5921 21.0242C9.81815 21.5862 11.1513 21.8765 12.5 21.875C13.8487 21.8765 15.1818 21.5862 16.4079 21.0242C17.634 20.4621 18.7239 19.6416 19.6031 18.6188C18.9796 17.2589 17.9788 16.1067 16.7197 15.2991C15.4605 14.4914 13.9959 14.0622 12.5 14.0625Z" fill="#878585" />
</svg>
