<svg width="25" height="21" viewBox="0 0 25 21" fill="none" xmlns="http://www.w3.org/2000/svg">
<path fill-rule="evenodd" clip-rule="evenodd" d="M1.75672 1.83173C2.88188 0.706903 4.40773 0.0750101 5.99872 0.0750101C7.5897 0.0750101 9.11555 0.706903 10.2407 1.83173L11.9987 3.58823L13.7567 1.83173C14.3102 1.25867 14.9723 0.801574 15.7043 0.48712C16.4363 0.172666 17.2236 0.00714944 18.0203 0.00022654C18.817 -0.00669636 19.6071 0.145114 20.3444 0.446799C21.0818 0.748485 21.7517 1.194 22.3151 1.75736C22.8784 2.32072 23.324 2.99063 23.6256 3.72801C23.9273 4.46538 24.0791 5.25546 24.0722 6.05214C24.0653 6.84881 23.8998 7.63613 23.5853 8.36816C23.2709 9.10018 22.8138 9.76225 22.2407 10.3157L11.9987 20.5592L1.75672 10.3157C0.631892 9.19056 0 7.66472 0 6.07373C0 4.48274 0.631892 2.9569 1.75672 1.83173Z" fill="#272323" fill-opacity="0.3"/>
</svg>
