<svg width="25" height="25" viewBox="0 0 25 25" fill="none" xmlns="http://www.w3.org/2000/svg">
<path d="M13.6064 0.457485C13.3129 0.164557 12.915 0 12.5 0C12.085 0 11.6871 0.164557 11.3936 0.457485L0.439287 11.3951C0.154227 11.6898 -0.00350635 12.0845 5.91575e-05 12.4942C0.00362466 12.9039 0.168204 13.2958 0.45835 13.5855C0.748496 13.8752 1.14099 14.0395 1.55131 14.0431C1.96162 14.0467 2.35692 13.8892 2.65206 13.6045L3.11058 13.1467V23.4375C3.11058 23.8519 3.27545 24.2493 3.56893 24.5424C3.8624 24.8354 4.26044 25 4.67548 25H7.80529C8.22033 25 8.61837 24.8354 8.91184 24.5424C9.20532 24.2493 9.37019 23.8519 9.37019 23.4375V20.3124C9.37019 19.898 9.53507 19.5006 9.82854 19.2076C10.122 18.9145 10.5201 18.7499 10.9351 18.7499H14.0649C14.4799 18.7499 14.878 18.9145 15.1715 19.2076C15.4649 19.5006 15.6298 19.898 15.6298 20.3124V23.4375C15.6298 23.8519 15.7947 24.2493 16.0882 24.5424C16.3816 24.8354 16.7797 25 17.1947 25H20.3245C20.7396 25 21.1376 24.8354 21.4311 24.5424C21.7245 24.2493 21.8894 23.8519 21.8894 23.4375V13.1467L22.3479 13.6045C22.6431 13.8892 23.0384 14.0467 23.4487 14.0431C23.859 14.0395 24.2515 13.8752 24.5416 13.5855C24.8318 13.2958 24.9964 12.9039 24.9999 12.4942C25.0035 12.0845 24.8458 11.6898 24.5607 11.3951L13.6064 0.457485Z" fill="#878585"/>
</svg>
