<svg width="18" height="23" viewBox="0 0 18 23" fill="none" xmlns="http://www.w3.org/2000/svg">
<path d="M7.5 0C7.10218 0 6.72064 0.15145 6.43934 0.421034C6.15804 0.690617 6 1.05625 6 1.4375C6 1.81875 6.15804 2.18438 6.43934 2.45397C6.72064 2.72355 7.10218 2.875 7.5 2.875H10.5C10.8978 2.875 11.2794 2.72355 11.5607 2.45397C11.842 2.18438 12 1.81875 12 1.4375C12 1.05625 11.842 0.690617 11.5607 0.421034C11.2794 0.15145 10.8978 0 10.5 0H7.5Z" fill="#272323" fill-opacity="0.3"/>
<path fill-rule="evenodd" clip-rule="evenodd" d="M0 4.3125C0 3.55 0.31607 2.81873 0.87868 2.27957C1.44129 1.7404 2.20435 1.4375 3 1.4375C3 2.58125 3.47411 3.67815 4.31802 4.4869C5.16193 5.29565 6.30653 5.75 7.5 5.75H10.5C11.6935 5.75 12.8381 5.29565 13.682 4.4869C14.5259 3.67815 15 2.58125 15 1.4375C15.7956 1.4375 16.5587 1.7404 17.1213 2.27957C17.6839 2.81873 18 3.55 18 4.3125V20.125C18 20.8875 17.6839 21.6188 17.1213 22.1579C16.5587 22.6971 15.7956 23 15 23H3C2.20435 23 1.44129 22.6971 0.87868 22.1579C0.31607 21.6188 0 20.8875 0 20.125V4.3125ZM4.5 10.0625C4.10218 10.0625 3.72064 10.214 3.43934 10.4835C3.15804 10.7531 3 11.1188 3 11.5C3 11.8812 3.15804 12.2469 3.43934 12.5165C3.72064 12.786 4.10218 12.9375 4.5 12.9375H4.515C4.91283 12.9375 5.29436 12.786 5.57566 12.5165C5.85696 12.2469 6.015 11.8812 6.015 11.5C6.015 11.1188 5.85696 10.7531 5.57566 10.4835C5.29436 10.214 4.91283 10.0625 4.515 10.0625H4.5ZM9 10.0625C8.60218 10.0625 8.22064 10.214 7.93934 10.4835C7.65804 10.7531 7.5 11.1188 7.5 11.5C7.5 11.8812 7.65804 12.2469 7.93934 12.5165C8.22064 12.786 8.60218 12.9375 9 12.9375H13.5C13.8978 12.9375 14.2794 12.786 14.5607 12.5165C14.842 12.2469 15 11.8812 15 11.5C15 11.1188 14.842 10.7531 14.5607 10.4835C14.2794 10.214 13.8978 10.0625 13.5 10.0625H9ZM4.5 15.8125C4.10218 15.8125 3.72064 15.964 3.43934 16.2335C3.15804 16.5031 3 16.8688 3 17.25C3 17.6312 3.15804 17.9969 3.43934 18.2665C3.72064 18.536 4.10218 18.6875 4.5 18.6875H4.515C4.91283 18.6875 5.29436 18.536 5.57566 18.2665C5.85696 17.9969 6.015 17.6312 6.015 17.25C6.015 16.8688 5.85696 16.5031 5.57566 16.2335C5.29436 15.964 4.91283 15.8125 4.515 15.8125H4.5ZM9 15.8125C8.60218 15.8125 8.22064 15.964 7.93934 16.2335C7.65804 16.5031 7.5 16.8688 7.5 17.25C7.5 17.6312 7.65804 17.9969 7.93934 18.2665C8.22064 18.536 8.60218 18.6875 9 18.6875H13.5C13.8978 18.6875 14.2794 18.536 14.5607 18.2665C14.842 17.9969 15 17.6312 15 17.25C15 16.8688 14.842 16.5031 14.5607 16.2335C14.2794 15.964 13.8978 15.8125 13.5 15.8125H9Z" fill="#878585"/>
</svg>
